# xmcd CD database file
#
# Track frame offsets:
#	150
#	13594
#	26862
#	45181
#	58900
#	71882
#	87987
#	104797
#	125240
#	138869
#	155705
#	173748
#	184279
#	197437
#	211087
#	224553
#	239118
#	254484
#
# Disc length: 3578 seconds
#
# Revision: 0
# Processed by: cddbd v1.5.1PL2 Copyright (c) Steve Scherf et al.
# Submitted via: CDex 1.51
#
DISCID=1b0df812
DTITLE=John Aderson - Greatest Hits
DYEAR=1900
DGENRE=Country
TTITLE0=Babys Got Her Blue Jeans On
TTITLE1=Black Sheep
TTITLE2=Cage Of Freedom
TTITLE3=Country Till I Die
TTITLE4=It Ain't Pneumonia It's The Blues
TTITLE5=I Wish I Could Have Been There
TTITLE6=I'm Just An Old Chunk Of Coal
TTITLE7=John Deer Green
TTITLE8=Money In The Bank
TTITLE9=Peace In The Valley
TTITLE10=Semnoll Wind
TTITLE11=She Just Started Loving Cheatin' Songs
TTITLE12=Straight Tequila Night
TTITLE13=Swingin
TTITLE14=Swingin'
TTITLE15=The Long Black Vail With Merle Haggard
TTITLE16=Somebody Slap Me
TTITLE17=Time Marches On
EXTD=
EXTT0=
EXTT1=
EXTT2=
EXTT3=
EXTT4=
EXTT5=
EXTT6=
EXTT7=
EXTT8=
EXTT9=
EXTT10=
EXTT11=
EXTT12=
EXTT13=
EXTT14=
EXTT15=
EXTT16=
EXTT17=
PLAYORDER=
